PathFileType	4	(X/Y/Z)	Patient4_TMGait_0pt4_03_right_42.trc.trc
DataRate	CameraRate	NumFrames	NumMarkers	Units	OrigDataRate	OrigDataStartFrame	OrigNumFrames
74.468085106383	74.468085106383	4	33	mm	74.468085106383	18	       141
Frame#	Time	Sacral			L.Shoulder			Chest			R.Shoulder			Neck			R.ASIS			L.ASIS			R.Thigh.Superior			R.Thigh.Lateral			R.Thigh.Inferior			R.Patella			L.Thigh.Superior			L.Thigh.Lateral			L.Thigh.Inferior			L.Patella			L.Shank.Superior			L.Shank.Lateral			L.Shank.Inferior			R.Shank.Superior			R.Shank.Lateral			R.Shank.Inferior			R.Heel			R.Midfoot.Superior			R.Midfoot.Lateral			R.Toe			L.Heel			L.Midfoot.Lateral			L.Midfoot.Superior			L.Toe			L.Elbow			L.Wrist			R.Elbow			R.Wrist			
		X1	Y1	Z1	X2	Y2	Z2	X3	Y3	Z3	X4	Y4	Z4	X5	Y5	Z5	X6	Y6	Z6	X7	Y7	Z7	X8	Y8	Z8	X9	Y9	Z9	X10	Y10	Z10	X11	Y11	Z11	X12	Y12	Z12	X13	Y13	Z13	X14	Y14	Z14	X15	Y15	Z15	X16	Y16	Z16	X17	Y17	Z17	X18	Y18	Z18	X19	Y19	Z19	X20	Y20	Z20	X21	Y21	Z21	X22	Y22	Z22	X23	Y23	Z23	X24	Y24	Z24	X25	Y25	Z25	X26	Y26	Z26	X27	Y27	Z27	X28	Y28	Z28	X29	Y29	Z29	X30	Y30	Z30	X31	Y31	Z31	X32	Y32	Z32	X33	Y33	Z33	

18	55.218285714286	950.455416695006	1010.381734865140	413.461166624853	1159.538789965583	1425.477659109002	224.871326025488	1245.030478447505	1363.087942693573	397.601259598550	1148.731035995995	1447.342731093584	560.210118840634	1131.021816985664	1495.981933232795	377.163267068853	1171.446466654466	947.188475241639	548.099682354306	1177.402745316910	966.651018898393	276.278033041535	1232.745482392592	760.470882314531	527.646156220605	1179.620349580474	648.661151363185	607.115959366178	1263.516539680299	598.619265662409	528.192314940595	1291.067906803749	519.486232135792	547.798756863887	1190.032433799235	737.538688609940	302.528276998846	1084.125293546724	633.538151146699	239.165359573690	1153.970165919328	545.892307885441	302.602643650356	1143.598203097373	478.503674213235	311.675727520759	1111.336660123138	410.236766933770	304.822669225644	1010.437389559958	303.730372900301	256.956307327618	1051.143106534528	188.749616874640	328.805754594687	1276.098564532705	436.189629517499	562.853350924311	1226.696193860956	325.930847782184	634.537882120415	1295.032198247445	238.017539900392	584.909144232149	1204.844436679301	48.686094335003	570.968601784316	1368.754362633002	125.613582861755	599.592968195376	1293.016104231185	50.245113145928	639.675651655698	1494.937251792695	90.891066710638	619.396477115971	915.837958009354	39.815158585891	379.046648151260	984.747763317659	35.576445005195	294.409924168152	1070.006288646375	95.501758995036	317.281716475148	1196.661771529187	42.207241291107	281.202620178456	1164.009572961415	1076.261377660865	99.199104796915	1378.037736497378	926.314439805234	88.310859789490	1004.706698885941	1142.115854114557	691.077084779969	992.674613704064	882.335215278348	722.930901685459	
19	55.231714285714	951.402360040151	1009.451299786283	415.313232181107	1159.317028033239	1424.992336392568	227.144180569001	1245.083354101481	1362.592476966715	399.717145772593	1148.806460559151	1446.531495202723	562.505146448989	1130.812480502371	1495.308997027076	379.508940956681	1172.300681142537	946.022358807678	549.857038790300	1177.990693242490	966.044693268155	278.253558713890	1231.983323877644	757.980296514029	529.784990712246	1176.872115263625	646.126204631144	608.012388201883	1260.896438385996	596.009031049293	529.309429162714	1287.642762274732	517.442827479312	548.267909386647	1189.315014005349	736.536651835868	304.147542889771	1082.389162444384	633.390072869192	240.303478855654	1151.205895212062	545.106718951356	303.691158928491	1140.287111956368	477.811843636996	312.548954078173	1107.666080261229	409.792002337905	305.530553235154	1006.112441937117	303.933884940185	257.427457819927	1046.279414848017	188.554114742516	329.017080884033	1273.144443275295	434.072913003802	562.737882569917	1223.764058944164	322.972161069944	632.926428702528	1293.325677606185	235.910727150244	583.343016916452	1204.501504830487	46.911040669542	567.192791162537	1368.114217034588	123.057448002209	597.557807695266	1292.004879694817	47.995416348717	636.591516887152	1494.028932286170	88.084602214648	617.968013432452	910.440212183554	39.837318149314	379.037246066897	979.334096201676	35.588631288681	294.409939458977	1064.614977817287	95.474741302970	317.306425940794	1191.235769541509	42.140231861613	281.192112796742	1164.498393723093	1075.619373380756	102.038901972447	1381.662720727931	930.493849223064	91.495141266041	1004.328849280889	1141.380623271744	692.378556783881	992.561865842774	881.288421909144	722.691309987685	
20	55.245142857143	952.545212200148	1008.395035620295	417.416254811582	1158.882145905133	1424.511430054865	229.633433959044	1245.057985512605	1362.187350807198	402.011044789489	1148.761950849031	1445.675837109302	565.023808772688	1130.408455703555	1494.599539964275	382.075414844656	1173.469227667194	944.849938449383	551.743263092587	1178.580647413556	965.074910736479	280.065272860037	1231.955093798469	755.721047605005	531.883752165782	1174.767509934937	643.607265811047	608.592566949417	1259.075741952060	593.662929111465	530.229725772680	1284.928575020360	515.281649335284	548.496652516686	1188.761440461216	735.459238710862	305.845712057471	1080.720891910044	633.256756630136	241.581485850408	1148.491365316256	544.309188133479	304.863834403856	1137.027658598661	477.100445701721	313.514292176989	1104.024762883098	409.350297690476	306.326643589547	1001.793039656298	304.174407628271	257.989220659350	1041.424424077339	188.363677260404	329.268247148004	1270.267443759669	431.585440385032	562.341407527645	1219.977696484851	320.075657415848	630.997405809096	1289.985171175175	233.333269342686	581.493052384532	1200.973039123411	45.575870520900	563.242866595621	1364.731143262430	119.789259851762	595.291811118648	1287.737457608466	45.791815410660	633.447257105689	1490.133141281201	83.775487907490	616.567305891702	905.045171658465	39.841591249217	379.036109637702	973.925093127481	35.602520405509	294.422512864729	1059.221960887342	95.454941705251	317.346345916506	1185.808621273179	42.068406433624	281.180955691306	1164.746301298734	1074.968613517836	105.072129662023	1384.634990669929	934.244104220763	94.801476637326	1004.728787324641	1140.121438934164	693.980665318937	994.024459759191	879.665726363775	722.628824208687	
21	55.258571428571	953.854694249765	1007.246918672521	419.737899046161	1158.277669725396	1424.042024408770	232.347351584717	1244.978407676266	1361.867186333290	404.498369490837	1148.618574978993	1444.779331611758	567.774437644063	1129.843643251572	1493.867031462694	384.872260075647	1174.927025280251	943.694310987621	553.752629894946	1179.230784591864	963.834431836148	281.703270217113	1232.632826425014	753.700474115138	533.937763770583	1173.287978804211	641.171166779835	608.908142163269	1258.033365876788	591.613825163957	531.003169963000	1282.899357785437	513.072929593095	548.492552749316	1188.363582980546	734.314894043805	307.570569343702	1079.113229793842	633.142198866963	242.993418621040	1145.843080530170	543.507444359958	306.105558521749	1133.851870683321	476.367195744447	314.563014145924	1100.432374137280	408.912212477449	307.209908951789	997.486655382419	304.460442465884	258.646634335133	1036.581255025791	188.181298317250	329.561224588045	1267.591338636677	428.828845977145	561.724070852556	1215.677047246669	317.280358595115	628.927102663372	1285.426239127719	230.381326389792	579.474262328158	1194.902215803629	44.562638454316	559.392951142323	1359.167942352909	116.023905053107	592.865649534207	1280.936124817227	43.694500527914	630.431257028586	1483.921011385200	78.405795701275	615.173551006576	899.650935201913	39.833884724241	379.042283588602	968.522968926776	35.618005466813	294.449842395565	1053.831285883379	95.444216781958	317.402151147865	1180.385602111107	41.986110344428	281.167412916748	1164.747038372639	1074.322234500959	108.275990994806	1386.948193709222	937.506776729611	98.199504405387	1005.850273466869	1138.378103723176	695.892338259699	997.014295308424	877.534651297979	722.824918878284	
